PathFileType	4	(X/Y/Z)	Patient4_TMGait_0pt7_02_right_17.trc.trc
DataRate	CameraRate	NumFrames	NumMarkers	Units	OrigDataRate	OrigDataStartFrame	OrigNumFrames
88.607594936709	88.607594936709	4	33	mm	88.607594936709	1	       141
Frame#	Time	Sacral			L.Shoulder			Chest			R.Shoulder			Neck			R.ASIS			L.ASIS			R.Thigh.Superior			R.Thigh.Lateral			R.Thigh.Inferior			R.Patella			L.Thigh.Superior			L.Thigh.Lateral			L.Thigh.Inferior			L.Patella			L.Shank.Superior			L.Shank.Lateral			L.Shank.Inferior			R.Shank.Superior			R.Shank.Lateral			R.Shank.Inferior			R.Heel			R.Midfoot.Superior			R.Midfoot.Lateral			R.Toe			L.Heel			L.Midfoot.Lateral			L.Midfoot.Superior			L.Toe			L.Elbow			L.Wrist			R.Elbow			R.Wrist			
		X1	Y1	Z1	X2	Y2	Z2	X3	Y3	Z3	X4	Y4	Z4	X5	Y5	Z5	X6	Y6	Z6	X7	Y7	Z7	X8	Y8	Z8	X9	Y9	Z9	X10	Y10	Z10	X11	Y11	Z11	X12	Y12	Z12	X13	Y13	Z13	X14	Y14	Z14	X15	Y15	Z15	X16	Y16	Z16	X17	Y17	Z17	X18	Y18	Z18	X19	Y19	Z19	X20	Y20	Z20	X21	Y21	Z21	X22	Y22	Z22	X23	Y23	Z23	X24	Y24	Z24	X25	Y25	Z25	X26	Y26	Z26	X27	Y27	Z27	X28	Y28	Z28	X29	Y29	Z29	X30	Y30	Z30	X31	Y31	Z31	X32	Y32	Z32	X33	Y33	Z33	

1	18.650000000000	793.621909029442	1018.632987292062	442.826732628613	990.186974654808	1433.988861553179	256.100059680543	1090.023723970630	1361.474887628000	418.832192917401	1011.384569981539	1442.622798330344	591.759966352968	994.755293453711	1498.324273633189	410.519923871995	1016.586939171227	947.341257646180	563.188501084071	1007.321483670866	963.379922261758	289.222487039432	1097.466124377791	780.284789107073	535.127778006040	1058.519147949388	659.036785613482	609.080747512142	1150.670592387099	620.069349937470	532.234829797872	1167.002357676147	503.328736854620	554.105506843619	1049.508234321675	751.534441391939	312.431751479453	953.420481932741	639.667351691390	260.257917884925	1036.571834047238	559.678532147607	321.960842646490	1034.580037964638	492.597096549342	333.706125994291	1011.547150489945	421.772531136774	326.748451097694	925.022181911022	303.424491024829	278.403712084051	981.563107235737	195.941614722918	352.499808917838	1083.485478568100	433.684971037390	557.871807926525	956.105280992482	408.144170009211	614.089609980762	930.973905728456	302.466986039687	563.130185286510	725.022512304186	264.113017899000	529.287324025662	885.514033820511	185.937277295299	571.114352253913	774.163939701942	194.166372708738	601.164264385900	936.937696192327	65.940343347650	591.913707360928	859.269861778070	38.511694318765	401.633622465455	931.761211947947	35.396302774645	319.025033898626	1014.849916186211	96.649231373559	344.113534641940	1143.470885743215	44.967158378729	314.512956160177	1027.523427844511	1095.697439338568	117.125373449536	1190.760943815581	891.908951159590	128.733148178078	944.838436969337	1101.654720398669	713.766040150225	1084.761417290519	880.334209850035	698.758560642042	
2	18.661285714286	792.645454757276	1019.079528173971	441.961617634544	991.182090654202	1434.771932745550	256.200778283175	1089.818213717530	1361.622012310728	419.271184821528	1010.449857785951	1442.503041650630	591.911930047050	994.517291718440	1498.667190591188	410.736836706240	1015.377307949514	947.963374638900	562.883325149976	1006.831351338553	963.586056466652	288.802662242756	1098.340716907971	783.785424405986	534.649586030671	1061.883273065938	662.118025286958	609.028389035053	1154.444382291980	624.682549074097	531.963319506250	1173.600293348465	508.848954232240	553.975509086404	1046.178152093382	750.563204535696	312.781289044563	948.941478070903	639.846349700588	259.842861366226	1030.551504034917	558.853310551569	321.852113526500	1027.631843781240	491.990708664228	333.628152304340	1004.472229963155	421.562732754041	326.540102713124	917.577387223919	303.541573913904	278.158599116366	973.614106973738	195.885732943347	352.366944404920	1092.346703566263	436.916859631521	558.079426743327	966.444184065906	406.749316681533	614.755107769177	945.072017606328	300.173023482515	563.891270453302	740.884735220880	254.232081767538	530.850560766063	904.299682505343	182.639462397856	572.722494956348	792.873037948350	186.516593303367	602.599652183197	959.758928554924	64.323082727672	593.198015103218	850.833714330538	38.526351813289	401.607212535964	923.388149574047	35.364156761854	318.992791021621	1006.484749924405	96.604142148488	344.053518859285	1135.104387507386	44.869644392619	314.502063700765	1035.090046755428	1099.309276731064	114.961876751228	1208.400737613811	905.653808443792	129.896656302015	938.643863277710	1102.727864847768	714.045779789815	1056.814473773174	872.308749541499	706.511697999160	
3	18.672571428571	791.707330773898	1019.499973823519	441.127677919978	992.166858387161	1435.525250925292	256.323863144009	1089.625558787961	1361.747958962528	419.723381414152	1009.539711674860	1442.357401265710	592.085727109883	994.289254478480	1498.980446673941	410.979957341342	1014.189673762212	948.550183824980	562.591061740386	1006.350860181977	963.762769262331	288.416872003530	1099.172218750617	787.182332552757	534.186493040381	1065.149465483930	665.111841424220	608.982796987207	1158.079776017556	629.159149442871	531.691057880104	1179.973079957016	514.243923675247	553.866548924261	1042.908003321369	749.595390031426	313.155293067413	944.544643706029	640.012083570876	259.438818678674	1024.633758728648	558.034840529157	321.753384752130	1020.808269636395	491.392785106547	333.547133022653	997.514683696605	421.345992665447	326.342702919644	910.250741968579	303.654105189824	277.918331115555	965.779142167281	195.823935001021	352.239067191091	1101.018191517275	440.035167238831	558.315044524917	976.618851026195	405.210629497204	615.434854150698	959.052730510084	297.745241859837	564.698509652835	756.663192776804	244.166689711755	532.457615810481	922.970601480693	179.175370241292	574.353166924869	811.487543907707	178.724555782062	604.098523998458	982.513141107220	62.617776736113	594.588512457424	842.511487553594	38.539953250218	401.579633254124	915.124911930952	35.331800024521	318.960949858442	998.230242220860	96.559872528899	343.996679288735	1126.850182349273	44.773624318704	314.490382913130	1042.461352920743	1102.862636021711	112.853795368323	1225.633214761563	919.351799661491	131.136106060215	932.480336056767	1103.792288431296	714.321341790818	1029.319902642005	864.838847745079	714.075539727124	
4	18.683857142857	790.844557160069	1019.865307191420	440.358294640402	993.142640799675	1436.210686810067	256.500506937497	1089.466377654711	1361.822855606076	420.213367056394	1008.682849860806	1442.157333523773	592.310586051076	994.091112093808	1499.228570809090	411.280957760534	1013.048025300372	949.056283864608	562.336067271098	1005.894513904074	963.880576086567	288.098273837690	1099.890432618440	790.329107051538	533.766145070614	1068.163507410261	667.891122353739	608.965316687938	1161.381889963600	633.309200375282	531.434087348238	1185.851811147234	519.372333085146	553.808216956734	1039.740452996898	748.621825922163	313.579105545993	940.278439272080	640.148518104764	259.062883375008	1018.875857552900	557.217991393530	321.678666368169	1014.177533179926	490.798121138919	333.466695209837	990.730557099776	421.108605711128	326.169170019592	903.086627308517	303.759453987641	277.688674736658	958.086293087606	195.746426966232	352.121812562045	1109.321282906990	442.921173537016	558.617417388277	986.570306939753	403.324431091403	616.169603778532	972.977804335221	295.034141168268	565.609208100540	772.607191680739	233.610905976904	534.158861002192	941.701360178360	175.403736290827	576.049206179122	830.253780101214	170.591313138637	605.731639319323	1005.455392222748	60.850846823201	596.201643390161	834.318982096287	38.554508753259	401.548909495150	906.982927578199	35.299538516830	318.929496994511	990.100270975007	96.515900668051	343.945933768931	1118.721624379490	44.676895644705	314.478218880478	1049.494087097668	1106.310388177263	110.852463607896	1242.116929617471	933.086566503114	132.562188372348	926.299860419394	1104.901004898164	714.619619359243	1002.584489558509	858.471912585771	721.271573530930	
